<svg width="67" height="68" viewBox="0 0 67 68" fill="none" xmlns="http://www.w3.org/2000/svg">
<path d="M54.0374 3.0208C53.0715 2.05337 51.9226 1.28802 50.6577 0.769424C49.3928 0.250828 48.0374 -0.0106234 46.6703 0.000330483H10.3878C7.63308 0.0122736 4.99106 1.0955 3.0208 3.0208C2.05337 3.98667 1.28802 5.13557 0.769424 6.40044C0.250828 7.66531 -0.0106234 9.02081 0.000330483 10.3878V56.6692C0.0122736 59.4239 1.0955 62.066 3.0208 64.0362C3.98667 65.0037 5.13557 65.769 6.40044 66.2876C7.66531 66.8062 9.02081 67.0676 10.3878 67.0567H36.985C37.4833 67.0567 37.9611 66.8588 38.3134 66.5065C38.6657 66.1542 38.8636 65.6763 38.8636 65.1781C38.8636 64.6799 38.6657 64.202 38.3134 63.8497C37.9611 63.4974 37.4833 63.2995 36.985 63.2995H10.3141V63.1522C9.46428 63.1488 8.62341 62.9779 7.83966 62.6493C7.0559 62.3206 6.34465 61.8406 5.7466 61.2368C4.57716 60.0019 3.91906 58.3699 3.90485 56.6692V10.3878C3.90117 9.54779 4.06918 8.71587 4.39856 7.94311C4.72793 7.17034 5.21173 6.47302 5.82027 5.89394C6.41832 5.2901 7.12958 4.81011 7.91333 4.48144C8.69708 4.15277 9.53795 3.98187 10.3878 3.97852H46.6703C48.3851 3.99342 50.0254 4.68123 51.238 5.89381C52.4506 7.10639 53.1384 8.74671 53.1533 10.4615V35.4697C53.1523 35.7267 53.2021 35.9814 53.2998 36.2191C53.3975 36.4568 53.5411 36.6729 53.7225 36.8549C53.9039 37.037 54.1194 37.1815 54.3568 37.28C54.5941 37.3786 54.8486 37.4293 55.1056 37.4293C55.3619 37.4293 55.6158 37.3788 55.8527 37.2807C56.0895 37.1826 56.3047 37.0388 56.486 36.8575C56.6673 36.6762 56.8111 36.461 56.9092 36.2242C57.0073 35.9873 57.0578 35.7334 57.0578 35.4771V10.3878C57.0459 7.63308 55.9627 4.99106 54.0374 3.0208Z" fill="#C94D35"/>
<path d="M65.3111 64.8067C64.6216 65.6508 63.6042 66.1348 62.5196 66.1348H45.0215C43.9309 66.1348 42.9104 65.6512 42.2216 64.8081C41.5287 63.9597 41.2596 62.8576 41.4832 61.7843C42.0621 59.0061 43.5953 56.4781 45.8002 54.666C46.6352 53.9798 47.5529 53.4087 48.5258 52.9624C47.4416 51.7354 46.7822 50.1276 46.7822 48.3686C46.7822 44.5292 49.9169 41.4061 53.7705 41.4061C57.6241 41.4061 60.7589 44.5292 60.7589 48.3686C60.7589 50.1276 60.0995 51.7354 59.0153 52.9624C59.9882 53.4087 60.9059 53.9795 61.7409 54.666C63.9017 56.4419 65.4171 58.9053 66.0219 61.6177C66.0359 61.6647 66.0478 61.7122 66.0579 61.7606C66.2826 62.8401 66.0103 63.9503 65.3111 64.8067ZM50.366 48.3686C50.366 50.2389 51.8933 51.7605 53.7705 51.7605C55.6478 51.7605 57.1751 50.2389 57.1751 48.3686C57.1751 46.4982 55.6478 44.9766 53.7705 44.9766C51.8933 44.9766 50.366 46.4982 50.366 48.3686ZM62.5497 62.5138C62.5494 62.5127 62.549 62.5103 62.549 62.5103C61.6884 58.3816 57.9965 55.3847 53.7705 55.3847C49.5446 55.3847 45.8523 58.3816 44.9921 62.5103C44.984 62.5504 45.0117 62.5636 45.0117 62.5636C45.0117 62.5636 45.0155 62.5643 45.0215 62.5643H62.5196C62.5207 62.5633 62.5448 62.5451 62.5497 62.5138Z" fill="#C94D35"/>
<path d="M45.2916 26.4539H11.8655C10.7118 26.4539 9.77637 27.3892 9.77637 28.543C9.77637 29.6968 10.7118 30.6322 11.8655 30.6322H45.2916C46.4454 30.6322 47.3808 29.6968 47.3808 28.543C47.3808 27.3892 46.4454 26.4539 45.2916 26.4539Z" fill="#C94D35"/>
<path d="M45.2916 14.9521H11.8655C10.7118 14.9521 9.77637 15.8875 9.77637 17.0413C9.77637 18.1951 10.7118 19.1305 11.8655 19.1305H45.2916C46.4454 19.1305 47.3808 18.1951 47.3808 17.0413C47.3808 15.8875 46.4454 14.9521 45.2916 14.9521Z" fill="#C94D35"/>
<path d="M36.9331 37.9557H11.3739C10.4916 37.9557 9.77637 38.8911 9.77637 40.0449C9.77637 41.1986 10.4916 42.134 11.3739 42.134H36.9331C37.8154 42.134 38.5306 41.1986 38.5306 40.0449C38.5306 38.8909 37.8154 37.9557 36.9331 37.9557Z" fill="#C94D35"/>
<path d="M28.7542 49.4573H11.5017C10.5488 49.4573 9.77637 50.3927 9.77637 51.5464C9.77637 52.7002 10.5488 53.6356 11.5017 53.6356H28.7542C29.707 53.6356 30.4794 52.7002 30.4794 51.5464C30.4794 50.3927 29.707 49.4573 28.7542 49.4573Z" fill="#C94D35"/>
</svg>
